<?xml version="1.0" encoding="UTF-8" standalone="no"?>
<!DOCTYPE svg PUBLIC "-//W3C//DTD SVG 1.1//EN"
 "http://www.w3.org/Graphics/SVG/1.1/DTD/svg11.dtd">
<!-- Generated by graphviz version 2.40.1 (20161225.0304)
 -->
<!-- Title: G Pages: 1 -->
<svg width="1215pt" height="379pt"
 viewBox="0.00 0.00 1214.95 379.00" xmlns="http://www.w3.org/2000/svg" xmlns:xlink="http://www.w3.org/1999/xlink">
<g id="graph0" class="graph" transform="scale(1 1) rotate(0) translate(4 375)">
<title>G</title>
<polygon fill="#ffffff" stroke="transparent" points="-4,4 -4,-375 1210.949,-375 1210.949,4 -4,4"/>
<!-- A0 -->
<g id="node1" class="node">
<title>A0</title>
<ellipse fill="none" stroke="#000000" cx="359.0645" cy="-360" rx="11" ry="11"/>
</g>
<!-- A1 -->
<g id="node2" class="node">
<title>A1</title>
<path fill="none" stroke="#000000" d="M396.1524,-312C396.1524,-312 321.9766,-312 321.9766,-312 315.9766,-312 309.9766,-306 309.9766,-300 309.9766,-300 309.9766,-288 309.9766,-288 309.9766,-282 315.9766,-276 321.9766,-276 321.9766,-276 396.1524,-276 396.1524,-276 402.1524,-276 408.1524,-282 408.1524,-288 408.1524,-288 408.1524,-300 408.1524,-300 408.1524,-306 402.1524,-312 396.1524,-312"/>
<text text-anchor="middle" x="359.0645" y="-291" font-family="Helvetica,sans-Serif" font-size="10.00" fill="#000000">{ChooseOption}</text>
</g>
<!-- A0&#45;&gt;A1 -->
<g id="edge1" class="edge">
<title>A0&#45;&gt;A1</title>
<path fill="none" stroke="#000000" d="M359.0645,-348.804C359.0645,-341.5358 359.0645,-331.7135 359.0645,-322.3916"/>
<polygon fill="#000000" stroke="#000000" points="359.0645,-312.2423 363.5646,-322.2423 359.0645,-317.2423 359.0646,-322.2423 359.0646,-322.2423 359.0646,-322.2423 359.0645,-317.2423 354.5646,-322.2424 359.0645,-312.2423 359.0645,-312.2423"/>
</g>
<!-- A2 -->
<g id="node3" class="node">
<title>A2</title>
<path fill="none" stroke="#000000" d="M609.2538,-228C609.2538,-228 478.8752,-228 478.8752,-228 472.8752,-228 466.8752,-222 466.8752,-216 466.8752,-216 466.8752,-204 466.8752,-204 466.8752,-198 472.8752,-192 478.8752,-192 478.8752,-192 609.2538,-192 609.2538,-192 615.2538,-192 621.2538,-198 621.2538,-204 621.2538,-204 621.2538,-216 621.2538,-216 621.2538,-222 615.2538,-228 609.2538,-228"/>
<text text-anchor="middle" x="544.0645" y="-207" font-family="Helvetica,sans-Serif" font-size="10.00" fill="#000000">{WaitPlayersNameAndType}</text>
</g>
<!-- A1&#45;&gt;A2 -->
<g id="edge2" class="edge">
<title>A1&#45;&gt;A2</title>
<path fill="none" stroke="#000000" d="M389.813,-275.9123C409.5556,-264.4398 433.4209,-250.8722 444.0495,-246 455.2348,-240.8726 467.3782,-235.974 479.2218,-231.5328"/>
<polygon fill="#000000" stroke="#000000" points="488.6319,-228.0735 480.7987,-235.7476 483.939,-229.7988 479.246,-231.524 479.246,-231.524 479.246,-231.524 483.939,-229.7988 477.6933,-227.3003 488.6319,-228.0735 488.6319,-228.0735"/>
<text text-anchor="middle" x="516.572" y="-249" font-family="Helvetica,sans-Serif" font-size="10.00" fill="#000000">[startWaitPlayersNameAndType]</text>
</g>
<!-- A3 -->
<g id="node4" class="node">
<title>A3</title>
<path fill="none" stroke="#000000" d="M525.9686,-120C525.9686,-120 488.1604,-120 488.1604,-120 482.1604,-120 476.1604,-114 476.1604,-108 476.1604,-108 476.1604,-96 476.1604,-96 476.1604,-90 482.1604,-84 488.1604,-84 488.1604,-84 525.9686,-84 525.9686,-84 531.9686,-84 537.9686,-90 537.9686,-96 537.9686,-96 537.9686,-108 537.9686,-108 537.9686,-114 531.9686,-120 525.9686,-120"/>
<text text-anchor="middle" x="507.0645" y="-99" font-family="Helvetica,sans-Serif" font-size="10.00" fill="#000000">{Game}</text>
</g>
<!-- A1&#45;&gt;A3 -->
<g id="edge3" class="edge">
<title>A1&#45;&gt;A3</title>
<path fill="none" stroke="#000000" d="M329.109,-275.8284C300.2132,-255.8993 263.4869,-222.6622 282.8345,-192 303.1487,-159.806 407.3692,-128.0228 466.3084,-112.2505"/>
<polygon fill="#000000" stroke="#000000" points="476.0578,-109.6769 467.5376,-116.5802 471.2234,-110.9531 466.389,-112.2293 466.389,-112.2293 466.389,-112.2293 471.2234,-110.9531 465.2405,-107.8783 476.0578,-109.6769 476.0578,-109.6769"/>
<text text-anchor="middle" x="309.1795" y="-207" font-family="Helvetica,sans-Serif" font-size="10.00" fill="#000000">[startGame]</text>
</g>
<!-- A4 -->
<g id="node5" class="node">
<title>A4</title>
<path fill="none" stroke="#000000" d="M82.1936,-174C82.1936,-174 11.9354,-174 11.9354,-174 5.9354,-174 -.0646,-168 -.0646,-162 -.0646,-162 -.0646,-150 -.0646,-150 -.0646,-144 5.9354,-138 11.9354,-138 11.9354,-138 82.1936,-138 82.1936,-138 88.1936,-138 94.1936,-144 94.1936,-150 94.1936,-150 94.1936,-162 94.1936,-162 94.1936,-168 88.1936,-174 82.1936,-174"/>
<text text-anchor="middle" x="47.0645" y="-153" font-family="Helvetica,sans-Serif" font-size="10.00" fill="#000000">{WatchReplay}</text>
</g>
<!-- A1&#45;&gt;A4 -->
<g id="edge4" class="edge">
<title>A1&#45;&gt;A4</title>
<path fill="none" stroke="#000000" d="M309.8329,-290.9789C249.7668,-286.5377 152.4055,-276.6729 121.6095,-258 92.7625,-240.5089 71.6698,-207.2158 59.4267,-183.4228"/>
<polygon fill="#000000" stroke="#000000" points="54.8731,-174.1955 63.3339,-181.1716 57.0858,-178.6793 59.2986,-183.163 59.2986,-183.163 59.2986,-183.163 57.0858,-178.6793 55.2632,-185.1545 54.8731,-174.1955 54.8731,-174.1955"/>
<text text-anchor="middle" x="164.292" y="-249" font-family="Helvetica,sans-Serif" font-size="10.00" fill="#000000">[startWatchReplay]</text>
</g>
<!-- A5 -->
<g id="node6" class="node">
<title>A5</title>
<ellipse fill="none" stroke="#000000" cx="359.0645" cy="-210" rx="11" ry="11"/>
<ellipse fill="none" stroke="#000000" cx="359.0645" cy="-210" rx="15" ry="15"/>
</g>
<!-- A1&#45;&gt;A5 -->
<g id="edge5" class="edge">
<title>A1&#45;&gt;A5</title>
<path fill="none" stroke="#000000" d="M359.0645,-275.7733C359.0645,-263.9364 359.0645,-248.3432 359.0645,-235.3105"/>
<polygon fill="#000000" stroke="#000000" points="359.0645,-225.1039 363.5646,-235.1039 359.0645,-230.1039 359.0646,-235.1039 359.0646,-235.1039 359.0646,-235.1039 359.0645,-230.1039 354.5646,-235.104 359.0645,-225.1039 359.0645,-225.1039"/>
<text text-anchor="middle" x="373.5115" y="-249" font-family="Helvetica,sans-Serif" font-size="10.00" fill="#000000">[SAIR]</text>
</g>
<!-- A2&#45;&gt;A1 -->
<g id="edge10" class="edge">
<title>A2&#45;&gt;A1</title>
<path fill="none" stroke="#000000" d="M577.1426,-228.1049C589.1006,-236.9466 597.7534,-247.8453 589.0645,-258 578.0432,-270.8806 482.681,-282.3404 418.2605,-288.7094"/>
<polygon fill="#000000" stroke="#000000" points="408.2047,-289.6873 417.7221,-284.2404 413.1812,-289.2033 418.1577,-288.7193 418.1577,-288.7193 418.1577,-288.7193 413.1812,-289.2033 418.5933,-293.1982 408.2047,-289.6873 408.2047,-289.6873"/>
<text text-anchor="middle" x="611.5165" y="-249" font-family="Helvetica,sans-Serif" font-size="10.00" fill="#000000">[goBack]</text>
</g>
<!-- A2&#45;&gt;A2 -->
<g id="edge8" class="edge">
<title>A2&#45;&gt;A2</title>
<path fill="none" stroke="#000000" d="M621.5037,-217.0271C632.2357,-215.8697 639.409,-213.5273 639.409,-210 639.409,-207.7403 636.4651,-205.9669 631.5275,-204.6798"/>
<polygon fill="#000000" stroke="#000000" points="621.5037,-202.9729 632.1172,-200.2155 626.4327,-203.8123 631.3618,-204.6517 631.3618,-204.6517 631.3618,-204.6517 626.4327,-203.8123 630.6063,-209.0878 621.5037,-202.9729 621.5037,-202.9729"/>
<text text-anchor="middle" x="724.1425" y="-207" font-family="Helvetica,sans-Serif" font-size="10.00" fill="#000000">[setPlayers : jogadores são inválidos]</text>
</g>
<!-- A2&#45;&gt;A3 -->
<g id="edge9" class="edge">
<title>A2&#45;&gt;A3</title>
<path fill="none" stroke="#000000" d="M537.788,-191.6793C531.9589,-174.6649 523.1995,-149.0967 516.5232,-129.6091"/>
<polygon fill="#000000" stroke="#000000" points="513.2484,-120.0502 520.7465,-128.0519 514.8689,-124.7803 516.4894,-129.5104 516.4894,-129.5104 516.4894,-129.5104 514.8689,-124.7803 512.2323,-130.9689 513.2484,-120.0502 513.2484,-120.0502"/>
<text text-anchor="middle" x="611.909" y="-153" font-family="Helvetica,sans-Serif" font-size="10.00" fill="#000000">[setPlayers : jogadores são válidos]</text>
</g>
<!-- A3&#45;&gt;A1 -->
<g id="edge16" class="edge">
<title>A3&#45;&gt;A1</title>
<path fill="none" stroke="#000000" d="M485.1202,-120.0922C465.6955,-137.0344 437.6383,-163.8944 419.1605,-192 401.741,-218.4958 409.0623,-231.2316 392.0645,-258 389.8147,-261.5429 387.2012,-265.0617 384.4487,-268.4332"/>
<polygon fill="#000000" stroke="#000000" points="377.8797,-275.9749 381.0545,-265.4786 381.1638,-272.2046 384.4478,-268.4343 384.4478,-268.4343 384.4478,-268.4343 381.1638,-272.2046 387.8411,-271.3899 377.8797,-275.9749 377.8797,-275.9749"/>
<text text-anchor="middle" x="439.5165" y="-207" font-family="Helvetica,sans-Serif" font-size="10.00" fill="#000000">[goBack]</text>
</g>
<!-- A3&#45;&gt;A3 -->
<g id="edge11" class="edge">
<title>A3&#45;&gt;A3</title>
<path fill="none" stroke="#000000" d="M538.136,-105.9365C548.1108,-105.8962 556.0165,-104.584 556.0165,-102 556.0165,-100.385 552.9283,-99.2668 548.177,-98.6454"/>
<polygon fill="#000000" stroke="#000000" points="538.136,-98.0635 548.3797,-94.1497 543.1277,-98.3528 548.1193,-98.6422 548.1193,-98.6422 548.1193,-98.6422 543.1277,-98.3528 547.8589,-103.1346 538.136,-98.0635 538.136,-98.0635"/>
<text text-anchor="middle" x="607.1375" y="-99" font-family="Helvetica,sans-Serif" font-size="10.00" fill="#000000">[placePieceOnColumn]</text>
</g>
<!-- A3&#45;&gt;A3 -->
<g id="edge12" class="edge">
<title>A3&#45;&gt;A3</title>
<path fill="none" stroke="#000000" d="M537.9833,-107.7174C583.4823,-111.9038 658.2585,-109.998 658.2585,-102 658.2585,-94.5643 593.628,-92.3943 547.9788,-95.4899"/>
<polygon fill="#000000" stroke="#000000" points="537.9833,-96.2826 547.5962,-91.006 542.9677,-95.8873 547.952,-95.492 547.952,-95.492 547.952,-95.492 542.9677,-95.8873 548.3078,-99.9779 537.9833,-96.2826 537.9833,-96.2826"/>
<text text-anchor="middle" x="714.1035" y="-99" font-family="Helvetica,sans-Serif" font-size="10.00" fill="#000000">[placePieceOnColumnAI]</text>
</g>
<!-- A6 -->
<g id="node7" class="node">
<title>A6</title>
<path fill="none" stroke="#000000" d="M264.7561,-36C264.7561,-36 209.3729,-36 209.3729,-36 203.3729,-36 197.3729,-30 197.3729,-24 197.3729,-24 197.3729,-12 197.3729,-12 197.3729,-6 203.3729,0 209.3729,0 209.3729,0 264.7561,0 264.7561,0 270.7561,0 276.7561,-6 276.7561,-12 276.7561,-12 276.7561,-24 276.7561,-24 276.7561,-30 270.7561,-36 264.7561,-36"/>
<text text-anchor="middle" x="237.0645" y="-15" font-family="Helvetica,sans-Serif" font-size="10.00" fill="#000000">{EndGame}</text>
</g>
<!-- A3&#45;&gt;A6 -->
<g id="edge14" class="edge">
<title>A3&#45;&gt;A6</title>
<path fill="none" stroke="#000000" d="M503.2555,-83.7525C500.1287,-73.4079 494.6046,-61.1416 485.0645,-54 454.629,-31.2165 350.1632,-22.7627 286.9329,-19.6918"/>
<polygon fill="#000000" stroke="#000000" points="276.7761,-19.2274 286.9712,-15.1889 281.7709,-19.4558 286.7657,-19.6842 286.7657,-19.6842 286.7657,-19.6842 281.7709,-19.4558 286.5601,-24.1796 276.7761,-19.2274 276.7761,-19.2274"/>
<text text-anchor="middle" x="606.933" y="-57" font-family="Helvetica,sans-Serif" font-size="10.00" fill="#000000">[placePieceOnColumn : jogador ganhou/empatou]</text>
</g>
<!-- A3&#45;&gt;A6 -->
<g id="edge15" class="edge">
<title>A3&#45;&gt;A6</title>
<path fill="none" stroke="#000000" d="M476.0156,-99.5713C411.3017,-94.2375 266.5916,-80.7908 249.8795,-66 244.1069,-60.891 240.803,-53.4988 238.9476,-46.0404"/>
<polygon fill="#000000" stroke="#000000" points="237.2197,-36.0369 243.3562,-45.125 238.0708,-40.9639 238.9219,-45.891 238.9219,-45.891 238.9219,-45.891 238.0708,-40.9639 234.4876,-46.657 237.2197,-36.0369 237.2197,-36.0369"/>
<text text-anchor="middle" x="365.657" y="-57" font-family="Helvetica,sans-Serif" font-size="10.00" fill="#000000">[placePieceOnColumnAI : jogador ganhou/empatou]</text>
</g>
<!-- A7 -->
<g id="node8" class="node">
<title>A7</title>
<path fill="none" stroke="#000000" d="M897.3616,-36C897.3616,-36 770.7674,-36 770.7674,-36 764.7674,-36 758.7674,-30 758.7674,-24 758.7674,-24 758.7674,-12 758.7674,-12 758.7674,-6 764.7674,0 770.7674,0 770.7674,0 897.3616,0 897.3616,0 903.3616,0 909.3616,-6 909.3616,-12 909.3616,-12 909.3616,-24 909.3616,-24 909.3616,-30 903.3616,-36 897.3616,-36"/>
<text text-anchor="middle" x="834.0645" y="-15" font-family="Helvetica,sans-Serif" font-size="10.00" fill="#000000">{MinigameForSpecialPiece}</text>
</g>
<!-- A3&#45;&gt;A7 -->
<g id="edge13" class="edge">
<title>A3&#45;&gt;A7</title>
<path fill="none" stroke="#000000" d="M538.2052,-99.1444C580.4967,-94.7363 658.1498,-84.753 722.0645,-66 728.6469,-64.0687 757.3109,-51.7722 783.9907,-40.1098"/>
<polygon fill="#000000" stroke="#000000" points="793.3054,-36.0291 785.9515,-44.1637 788.7256,-38.0355 784.1458,-40.0419 784.1458,-40.0419 784.1458,-40.0419 788.7256,-38.0355 782.3401,-35.9201 793.3054,-36.0291 793.3054,-36.0291"/>
<text text-anchor="middle" x="819.626" y="-57" font-family="Helvetica,sans-Serif" font-size="10.00" fill="#000000">[startMinigameForSpecialPiece]</text>
</g>
<!-- A4&#45;&gt;A4 -->
<g id="edge6" class="edge">
<title>A4&#45;&gt;A4</title>
<path fill="none" stroke="#000000" d="M94.1466,-165.8525C104.5512,-164.9267 112.129,-161.6426 112.129,-156 112.129,-152.3852 109.0191,-149.7383 104.0483,-148.0594"/>
<polygon fill="#000000" stroke="#000000" points="94.1466,-146.1475 104.8184,-143.625 99.056,-147.0955 103.9653,-148.0434 103.9653,-148.0434 103.9653,-148.0434 99.056,-147.0955 103.1121,-152.4618 94.1466,-146.1475 94.1466,-146.1475"/>
<text text-anchor="middle" x="140.744" y="-153" font-family="Helvetica,sans-Serif" font-size="10.00" fill="#000000">[replayMove]</text>
</g>
<!-- A4&#45;&gt;A6 -->
<g id="edge7" class="edge">
<title>A4&#45;&gt;A6</title>
<path fill="none" stroke="#000000" d="M36.0273,-137.7711C28.1322,-122.125 20.7358,-99.6826 32.1605,-84 50.5984,-58.6904 132.6924,-38.2361 187.2076,-27.125"/>
<polygon fill="#000000" stroke="#000000" points="197.0443,-25.16 188.1196,-31.5318 192.1411,-26.1395 187.238,-27.119 187.238,-27.119 187.238,-27.119 192.1411,-26.1395 186.3565,-22.7062 197.0443,-25.16 197.0443,-25.16"/>
<text text-anchor="middle" x="120.0165" y="-99" font-family="Helvetica,sans-Serif" font-size="10.00" fill="#000000">[replayMove : já não há mais jogadas]</text>
</g>
<!-- A6&#45;&gt;A1 -->
<g id="edge19" class="edge">
<title>A6&#45;&gt;A1</title>
<path fill="none" stroke="#000000" d="M236.6705,-36.2856C236.6741,-45.2635 236.9719,-56.2254 238.0645,-66 238.7994,-72.5748 261.0961,-197 274.0645,-228 280.0654,-242.3446 280.8123,-247.2685 292.0645,-258 296.9439,-262.6535 302.5423,-266.8829 308.3789,-270.6722"/>
<polygon fill="#000000" stroke="#000000" points="317.0446,-275.9073 306.1583,-274.5881 312.7649,-273.3218 308.4852,-270.7364 308.4852,-270.7364 308.4852,-270.7364 312.7649,-273.3218 310.8121,-266.8847 317.0446,-275.9073 317.0446,-275.9073"/>
<text text-anchor="middle" x="278.5165" y="-153" font-family="Helvetica,sans-Serif" font-size="10.00" fill="#000000">[goBack]</text>
</g>
<!-- A7&#45;&gt;A3 -->
<g id="edge18" class="edge">
<title>A7&#45;&gt;A3</title>
<path fill="none" stroke="#000000" d="M879.605,-36.2197C894.0825,-44.5778 904.0381,-55.0556 894.0645,-66 871.0926,-91.208 643.0417,-99.0532 548.1533,-101.2379"/>
<polygon fill="#000000" stroke="#000000" points="538.0612,-101.4604 547.9595,-96.741 543.0599,-101.3501 548.0587,-101.2399 548.0587,-101.2399 548.0587,-101.2399 543.0599,-101.3501 548.1579,-105.7388 538.0612,-101.4604 538.0612,-101.4604"/>
<text text-anchor="middle" x="986.4125" y="-57" font-family="Helvetica,sans-Serif" font-size="10.00" fill="#000000">[setMinigameAnswer : minijogo acabou]</text>
</g>
<!-- A7&#45;&gt;A7 -->
<g id="edge17" class="edge">
<title>A7&#45;&gt;A7</title>
<path fill="none" stroke="#000000" d="M909.555,-25.067C920.2717,-23.924 927.463,-21.5684 927.463,-18 927.463,-15.714 924.5117,-13.9257 919.5729,-12.6351"/>
<polygon fill="#000000" stroke="#000000" points="909.555,-10.933 920.1675,-8.1717 914.4843,-11.7706 919.4137,-12.6082 919.4137,-12.6082 919.4137,-12.6082 914.4843,-11.7706 918.6599,-17.0446 909.555,-10.933 909.555,-10.933"/>
<text text-anchor="middle" x="1067.206" y="-15" font-family="Helvetica,sans-Serif" font-size="10.00" fill="#000000">[setMinigameAnswer : minijogo requer mais que uma resposta]</text>
</g>
</g>
</svg>
